# Blender v2.93.5 OBJ File: 'CornelBox.blend'
# www.blender.org
mtllib Box.mtl
o Cube_Cube.003
v -3.154630 0.080189 -0.026858
v -3.154630 5.850122 -0.026858
v -4.668429 0.080189 2.836100
v -4.668429 5.850122 2.836100
v -0.291671 0.080189 1.486941
v -0.291671 5.850122 1.486941
v -1.805470 0.080189 4.349899
v -1.805470 5.850122 4.349899
vt 0.375000 0.000000
vt 0.375000 0.250000
vt 0.625000 0.250000
vt 0.625000 0.000000
vt 0.375000 0.500000
vt 0.625000 0.500000
vt 0.375000 0.750000
vt 0.625000 0.750000
vt 0.375000 1.000000
vt 0.625000 1.000000
vt 0.125000 0.500000
vt 0.125000 0.750000
vt 0.875000 0.750000
vt 0.875000 0.500000
vn -0.8840 0.0000 -0.4674
vn -0.4674 0.0000 0.8840
vn 0.8840 0.0000 0.4674
vn 0.4674 0.0000 -0.8840
vn 0.0000 -1.0000 0.0000
vn 0.0000 1.0000 0.0000
usemtl None
s off
f 1/1/1 3/2/1 4/3/1 2/4/1
f 3/2/2 7/5/2 8/6/2 4/3/2
f 7/5/3 5/7/3 6/8/3 8/6/3
f 5/7/4 1/9/4 2/10/4 6/8/4
f 3/11/5 1/12/5 5/7/5 7/5/5
f 8/6/6 6/8/6 2/13/6 4/14/6
o Cube.003_Cube.004
v -0.013661 0.007175 -3.439624
v -0.013661 2.985965 -3.439624
v -0.331344 0.007175 -0.890481
v -0.331344 2.985965 -0.890481
v 2.535481 0.007175 -3.121941
v 2.535481 2.985965 -3.121941
v 2.217798 0.007175 -0.572798
v 2.217798 2.985965 -0.572798
vt 0.375000 0.000000
vt 0.375000 0.250000
vt 0.625000 0.250000
vt 0.625000 0.000000
vt 0.375000 0.500000
vt 0.625000 0.500000
vt 0.375000 0.750000
vt 0.625000 0.750000
vt 0.375000 1.000000
vt 0.625000 1.000000
vt 0.125000 0.500000
vt 0.125000 0.750000
vt 0.875000 0.750000
vt 0.875000 0.500000
vn -0.9923 0.0000 -0.1237
vn -0.1237 0.0000 0.9923
vn 0.9923 0.0000 0.1237
vn 0.1237 0.0000 -0.9923
vn 0.0000 -1.0000 -0.0000
vn 0.0000 1.0000 0.0000
usemtl None
s off
f 9/15/7 11/16/7 12/17/7 10/18/7
f 11/16/8 15/19/8 16/20/8 12/17/8
f 15/19/9 13/21/9 14/22/9 16/20/9
f 13/21/10 9/23/10 10/24/10 14/22/10
f 11/25/11 9/26/11 13/21/11 15/19/11
f 16/20/12 14/22/12 10/27/12 12/28/12
