# Blender v2.93.5 OBJ File: 'CornelBox.blend'
# www.blender.org
mtllib Box2.mtl
o Cube_Cube.003
v -3.154630 0.080189 -0.026858
v -3.154630 5.850122 -0.026858
v -4.668429 0.080189 2.836100
v -4.668429 5.850122 2.836100
v -0.291671 0.080189 1.486941
v -0.291671 5.850122 1.486941
v -1.805470 0.080189 4.349899
v -1.805470 5.850122 4.349899
vt 0.375000 0.000000
vt 0.375000 0.250000
vt 0.625000 0.250000
vt 0.625000 0.000000
vt 0.375000 0.500000
vt 0.625000 0.500000
vt 0.375000 0.750000
vt 0.625000 0.750000
vt 0.375000 1.000000
vt 0.625000 1.000000
vt 0.125000 0.500000
vt 0.125000 0.750000
vt 0.875000 0.750000
vt 0.875000 0.500000
vn -0.8840 0.0000 -0.4674
vn -0.4674 0.0000 0.8840
vn 0.8840 0.0000 0.4674
vn 0.4674 0.0000 -0.8840
vn 0.0000 -1.0000 0.0000
vn 0.0000 1.0000 0.0000
usemtl None
s off
f 1/1/1 3/2/1 4/3/1 2/4/1
f 3/2/2 7/5/2 8/6/2 4/3/2
f 7/5/3 5/7/3 6/8/3 8/6/3
f 5/7/4 1/9/4 2/10/4 6/8/4
f 3/11/5 1/12/5 5/7/5 7/5/5
f 8/6/6 6/8/6 2/13/6 4/14/6
